<svg width="115" height="31" viewBox="0 0 115 31" fill="none" xmlns="http://www.w3.org/2000/svg">
<g clip-path="url(#clip0_2_110)">
<path d="M88.14 28.51V10.95C88.14 9.58 87.78 8.65 87.1 7.97C86.38 7.24 85.32 6.85 84.04 6.85C83.94 6.85 83.82 6.85 83.73 6.86V24.42C83.73 25.78 84.09 26.71 84.77 27.39C85.48 28.11 86.55 28.52 87.82 28.52C87.92 28.52 88.04 28.52 88.14 28.52V28.51ZM88.54 2.6C88.54 1.17 87.37 0 85.93 0C84.49 0 83.32 1.17 83.32 2.6C83.32 4.03 84.49 5.22 85.93 5.22C87.37 5.22 88.54 4.05 88.54 2.6ZM75.31 20V24.43C75.31 25.79 75.67 26.72 76.35 27.4C77.06 28.12 78.14 28.53 79.41 28.53C79.51 28.53 79.63 28.53 79.73 28.53V19.09C79.73 15.03 78.62 12.3 76.65 10.17C74.62 7.99 71.59 6.72 68.07 6.72C61.33 6.72 56.66 11.66 56.66 18.09C56.66 24.52 60.99 28.62 66.6 28.62C70.93 28.62 73.52 26.05 73.52 23.03C73.52 21.9 73.17 20.7 72.4 19.55C71.78 22.79 69.98 24.58 67.1 24.58C64.02 24.58 61.3 22.24 61.3 17.98C61.3 13.72 64.02 10.92 68.09 10.92C70.13 10.92 71.77 11.63 73.01 12.85C74.47 14.29 75.32 16.51 75.32 20.01L75.31 20ZM109.79 22.71C109.79 22.71 109.7 22.68 109.66 22.63C106.49 18.5 100.68 10.9 99.41 9.24C98.08 7.5 97.03 6.93 95.65 6.93C94.63 6.93 93.81 7.3 93.24 7.91C92.61 8.59 92.29 9.63 92.29 10.83V24.43C92.29 25.79 92.64 26.72 93.33 27.4C94.05 28.12 95.07 28.53 96.31 28.53C96.41 28.53 96.47 28.53 96.56 28.53V12.93C96.56 12.82 96.61 12.76 96.68 12.76C96.74 12.76 96.77 12.78 96.81 12.85C98.67 15.27 105.72 24.49 107.07 26.22C108.4 27.95 109.44 28.54 110.82 28.54C111.85 28.54 112.67 28.17 113.23 27.57C113.86 26.89 114.18 25.85 114.18 24.65V11.04C114.18 9.68 113.82 8.75 113.14 8.06C112.42 7.34 111.4 6.94 110.15 6.94C110.06 6.94 110 6.94 109.9 6.94V22.54C109.9 22.65 109.85 22.71 109.78 22.71H109.79ZM40.33 24.34C40.16 24.34 40.06 24.28 40.06 24.17C40.06 24.11 40.11 24.03 40.21 23.95C41.57 22.85 50.54 15.61 51.91 14.49C54.29 12.58 54.79 11.64 54.79 10.28C54.79 9.43 54.39 8.61 53.79 8.12C53.07 7.51 51.99 7.18 50.25 7.18H34.97V7.42C34.97 8.21 35.14 9.07 35.53 9.64C36.15 10.53 37.31 11.04 38.89 11.04H48.92C49.1 11.04 49.19 11.09 49.19 11.18C49.19 11.26 49.15 11.31 49.03 11.4C47.61 12.55 39.33 19.23 37.26 20.88C34.87 22.79 34.4 23.75 34.4 25.11C34.4 25.95 34.8 26.77 35.4 27.26C36.12 27.87 37.2 28.21 38.95 28.21H54.93V28.06C54.93 26.93 54.61 25.95 53.93 25.33C53.15 24.61 52.14 24.35 50.25 24.35H40.32L40.33 24.34Z" fill="url(#paint0_linear_2_110)"/>
<path d="M24.39 11.38C24.39 8.83005 22.43 6.91005 19.64 7.12005C13.71 7.58005 12.95 14.32 16.81 14.75C20.67 15.18 22.29 10.93 22.37 10.69C22.37 10.98 22.59 16.85 16.61 16.85C13.5 16.85 11.9 14.31 11.9 12.1C11.9 8.83005 15.08 5.58005 19.56 5.41005C22.07 5.31005 23.73 5.91005 25.02 7.20005C27.66 9.84005 26.9 14.79 24.76 17.24C21.37 21.12 16.6 22.1101 12.15 20.1201C7.71001 18.1301 6.11001 12.36 8.81001 7.53005C9.80001 5.75005 13.4 1.80005 19.58 1.80005C27.43 1.80005 31.41 7.36005 30.69 13.9C30.14 18.91 27.1 22.54 25.69 24.07C19.49 30.8 10.39 32.15 4.65001 28.64C1.48001 26.72 -0.349986 23.2601 0.0600143 19.35C0.410014 22.18 1.82001 24.62 4.16001 26.22C8.85001 29.42 16.69 29.8601 22.36 23.6201C16.66 27.8701 10.01 27.8101 5.46001 24.85C1.29001 22.14 0.150014 16.72 2.19001 11.35C1.17001 16.13 2.81001 20.57 6.43001 22.88C12.07 26.48 20.28 24.4101 25.46 18.6101C27.22 16.6301 28.24 13.97 28.2 11.53C28.15 7.47005 25.32 3.83005 19.61 3.83005C13.9 3.83005 9.73001 8.36005 9.73001 12.13C9.73001 16.31 12.6 18.7001 16.35 18.7001C20.1 18.7001 24.4 16.36 24.4 11.37L24.39 11.38Z" fill="url(#paint1_linear_2_110)"/>
</g>
<defs>
<linearGradient id="paint0_linear_2_110" x1="48.77" y1="45.9" x2="92.57" y2="-3.45" gradientUnits="userSpaceOnUse">
<stop stop-color="white"/>
<stop offset="0.07" stop-color="#E4E4E4"/>
<stop offset="0.17" stop-color="#C2C2C2"/>
<stop offset="0.25" stop-color="#ADADAD"/>
<stop offset="0.31" stop-color="#A6A6A6"/>
<stop offset="0.53" stop-color="#A6A6A6"/>
<stop offset="0.74" stop-color="#B3B3B3"/>
<stop offset="0.89" stop-color="#CCCCCC"/>
</linearGradient>
<linearGradient id="paint1_linear_2_110" x1="1.43366e-05" y1="16.17" x2="30.77" y2="16.17" gradientUnits="userSpaceOnUse">
<stop stop-color="#A6A6A6"/>
<stop offset="0.09" stop-color="#BABABA"/>
<stop offset="0.22" stop-color="#D5D5D5"/>
<stop offset="0.34" stop-color="#E5E5E5"/>
<stop offset="0.44" stop-color="#EBEBEB"/>
<stop offset="0.51" stop-color="#DDDDDE"/>
<stop offset="0.71" stop-color="#BDBEC1"/>
<stop offset="0.82" stop-color="#B1B3B6"/>
</linearGradient>
<clipPath id="clip0_2_110">
<rect width="114.19" height="30.52" fill="white"/>
</clipPath>
</defs>
</svg>
